<svg  aria-hidden="true" width="50px" focusable="false" data-prefix="fab" data-icon="sourcerer" class="svg-inline--fa fa-twitter fa-w-16" role="img" xmlns="http://www.w3.org/2000/svg" viewBox="0 0 45 45">

    <path fill="currentColor" d="M10.16530990600586,38.09250072389841 c0,0.800000011920929 0.20000000298023224,1.2000000476837158 0.699999988079071,1.2000000476837158 c0.4000000059604645,0 0.6000000238418579,-0.4000000059604645 0.6000000238418579,-1.2000000476837158 s-0.20000000298023224,-1.100000023841858 -0.6000000238418579,-1.100000023841858 c-0.5,0 -0.699999988079071,0.30000001192092896 -0.699999988079071,1.100000023841858 m0.699999988079071,2 c-1,0 -1.399999976158142,-0.6000000238418579 -1.399999976158142,-1.9000000953674316 c0,-1.2000000476837158 0.5,-1.7999999523162842 1.399999976158142,-1.7999999523162842 s1.2999999523162842,0.6000000238418579 1.2999999523162842,1.7999999523162842 S11.365310668945312,40.09250072389841 10.465309143066406,40.09250072389841 "/>
    <path fill="currentColor" d="M6.165310859680176,39.89249996095896 v-0.10000000149011612 L10.265310287475586,33.292501486837864 h0.699999988079071 l-4,6.599999904632568 H6.265311241149902 " />
    <path fill="currentColor" d="M5.8653106689453125,34.99250606447458 c0,0.800000011920929 0.20000000298023224,1.2000000476837158 0.699999988079071,1.2000000476837158 c0.4000000059604645,0 0.6000000238418579,-0.4000000059604645 0.6000000238418579,-1.2000000476837158 C7.265311241149902,34.19250301271677 7.065312385559082,33.89249996095896 6.665310859680176,33.89249996095896 C6.165310859680176,33.89249996095896 5.965311050415039,34.09250072389841 5.965311050415039,34.99250606447458 M5.265311241149902,35.09250072389841 C5.265311241149902,33.792501486837864 5.765311241149902,33.19250301271677 6.665310859680176,33.19250301271677 c0.800000011920929,0 1.2999999523162842,0.6000000238418579 1.2999999523162842,1.7999999523162842 c0,1.2999999523162842 -0.5,1.9000000953674316 -1.2999999523162842,1.9000000953674316 c-1,0 -1.399999976158142,-0.6000000238418579 -1.399999976158142,-1.9000000953674316 "/>
    <path fill="currentColor" d="M4.828365325927734,26.89277072995901 v-1 h1 v1 h-1 " />
    <path fill="currentColor" d="M1.1283655166625977,28.39276882261038 v-0.6000000238418579 h1 v-0.800000011920929 c0,-0.699999988079071 0.5,-1.100000023841858 1.399999976158142,-1.100000023841858 h0.6000000238418579 v0.800000011920929 h-0.6000000238418579 l-0.30000001192092896,0.10000000149011612 l-0.10000000149011612,0.4000000059604645 v0.5 h2.5 v4.800000190734863 h-0.800000011920929 v-4 H3.1283655166625977 v4 h-0.9000002145767212 v-4 H1.1283655166625977 m30.799999237060547,0.800000011920929 c0,-2 -1.399999976158142,-3.4000000953674316 -3.200000047683716,-3.4000000953674316 a3.299999952316284,3.299999952316284 0 0 0 -3.299999952316284,3.299999952316284 a3.3299999237060547,3.3299999237060547 0 0 0 3.299999952316284,3.299999952316284 c1.7999999523162842,0 3.200000047683716,-1.5 3.200000047683716,-3.299999952316284 m-15.5,4 a3.299999952316284,3.299999952316284 0 0 0 -3.299999952316284,3.299999952316284 a3.3299999237060547,3.3299999237060547 0 0 0 3.299999952316284,3.299999952316284 c1.7999999523162842,0 3.200000047683716,-1.5 3.200000047683716,-3.299999952316284 s-1.399999976158142,-3.299999952316284 -3.200000047683716,-3.299999952316284 m0,0.800000011920929 c1.2999999523162842,0 2.4000000953674316,1.100000023841858 2.4000000953674316,2.5 s-1,2.5 -2.4000000953674316,2.5 a2.5,2.5 0 0 1 -2.5,-2.5 c0,-1.399999976158142 1.100000023841858,-2.5 2.5,-2.5 " />
    <path fill="currentColor" d="M2.6186952218413353,18.000001907348633 l1.7000000476837158,1.399999976158142 a32.5,32.5 0 0 0 7,2.299999952316284 l2.4000000953674316,0.30000001192092896 l2.299999952316284,0.30000001192092896 a209.39999389648438,209.39999389648438 0 0 0 2.0999999046325684,0.30000001192092896 l1.2000000476837158,0.20000000298023224 a17,17 0 0 1 2.4000000953674316,0.6000000238418579 a5.699999809265137,5.699999809265137 0 0 1 2.5999999046325684,1.399999976158142 H32.01869388669729 l-0.30000001192092896,-1 c-1,-3 -3.4000000953674316,-5.099999904632568 -7.400000095367432,-6.300000190734863 a66.30000305175781,66.30000305175781 0 0 0 -9.5,-1.600000023841858 l-1.600000023841858,-0.30000001192092896 l-1.2000000476837158,-0.20000000298023224 l-1.2000000476837158,-0.20000000298023224 l-1.399999976158142,-0.6000000238418579 l-1.2999999523162842,-0.800000011920929 a4,4 0 0 1 -0.800000011920929,-1.100000023841858 L7.018695794045925,11.199999809265137 c0,-1.2999999523162842 0.699999988079071,-2.4000000953674316 2,-3.4000000953674316 c1.399999976158142,-1 3.4000000953674316,-1.5 6,-1.5 c2.9000000953674316,0 5.199999809265137,0.699999988079071 6.800000190734863,1.9000000953674316 a6,6 0 0 1 2.4000000953674316,5 c0,0.20000000298023224 0,0.30000001192092896 0.30000001192092896,0.30000001192092896 H31.018693886697292 c0.20000000298023224,0 0.20000000298023224,0 0.20000000298023224,-0.30000001192092896 a12.199999809265137,12.199999809265137 0 0 0 -7.900000095367432,-11.800000190734863 C20.81869312375784,0.40000009536743164 18.11869617551565,0 15.018695794045925,0 C10.518695794045925,0 6.918695412576199,1 4.018695794045925,3.1999998092651367 a9.699999809265137,9.699999809265137 0 0 0 -4.099999904632568,8 a11,11 0 0 0 1.2000000476837158,5 c0.30000001192092896,0.6000000238418579 0.800000011920929,1.2000000476837158 1.399999976158142,1.7999999523162842 z" />
    <path fill="currentColor" d="M20.328365325927734,40.200934410095215 h6.599999904632568 v-6.599999904632568 h-6.599999904632568 z"/>
" />
</svg>
